# xmcd
#
# Track frame offsets:
#	183
#	31618
#	79158
#	100465
#	116445
#	147808
#	204933
# Disc length: 4088 seconds
# Revision: 1
# Processed by: cddbd v1.5.1PL2 Copyright (c) Steve Scherf et al.
#
# Submitted via: libkcddb 0.21
#
DISCID=500ff607
DTITLE=Baba Bambuké - Musique des Pygmées Bibayak
DYEAR=2001
DGENRE=Ethnic
TTITLE0=deux séquences du jeu vocal mébasi
TTITLE1=Etudes de jodis
TTITLE2=Séquences polyphoniques
TTITLE3=Séquences polyphoniques (suite)
TTITLE4=Chant et sanza
TTITLE5=Dialogue avec les esprits
TTITLE6=Fragment d'un chant épique du Mvet
EXTD=Hommage à Pierre Sallée
EXTT0=
EXTT1=
EXTT2=
EXTT3=
EXTT4=
EXTT5=
EXTT6=
PLAYORDER=
